<svg width="312" height="312" viewBox="0 0 312 312" fill="none" xmlns="http://www.w3.org/2000/svg">
<rect width="312" height="312" fill="#294639"/>
<circle cx="156" cy="156" r="119.216" fill="#732120"/>
<path fill-rule="evenodd" clip-rule="evenodd" d="M191.382 129.273L220.588 126.641C226.724 122.929 231.394 105.293 226.724 102.117L191.382 91.9527C187.869 86.3621 184.908 84.2947 177.058 83.377V91.9527C156.025 98.1572 146.815 105.788 135.348 127.367C88.203 124.001 59.6525 186.179 109.656 218.146C103.24 210.812 99.15 203.023 97.0665 195.414C95.2656 191.107 94.2709 186.379 94.2709 181.418C94.2709 161.364 110.528 145.107 130.582 145.107C130.89 145.107 131.196 145.11 131.502 145.118C131.8 145.11 132.098 145.107 132.398 145.107C147.223 145.107 159.863 154.458 164.742 167.584C172.36 182.543 163.384 202.55 157.612 215.416C151.63 228.749 149.088 234.415 172.018 218.851L178.705 227.27C182.949 231.214 192.61 225.733 191.382 221.122C190.28 211.377 188.457 204.431 185.627 193.647C185.356 192.615 185.076 191.547 184.786 190.439C188.824 182.748 190.116 175.764 191.382 160.465V129.273ZM192.312 105.541C195.54 100.431 200.785 99.9669 203.205 105.541C199.316 109.968 196.919 109.791 192.312 105.541Z" fill="white"/>
<path d="M134.895 156.708L134.677 156.599L134.65 156.654C132.743 156.245 130.783 156 128.767 156C113.734 156 101.534 168.201 101.534 183.234C101.534 198.267 113.734 210.467 128.767 210.467C143.8 210.467 156.001 198.267 156.001 183.234C156.001 170.298 146.987 159.486 134.895 156.708ZM148.948 175.064H127.188L134.568 162.264C141.104 164.061 146.415 168.854 148.948 175.064ZM131.763 161.665L124.056 175.064L120.924 180.51L113.517 167.71C117.576 163.695 123.057 161.444 128.767 161.447C129.775 161.447 130.783 161.528 131.763 161.665ZM111.61 169.862L119.345 183.234L122.476 188.68H107.689C107.253 186.937 106.98 185.113 106.98 183.234C106.98 178.195 108.723 173.566 111.61 169.862ZM108.587 191.404H130.32L122.939 204.204C119.73 203.304 116.769 201.684 114.281 199.465C111.794 197.247 109.846 194.49 108.587 191.404ZM125.772 204.776L136.638 185.957L144.045 198.757C139.972 202.769 134.485 205.018 128.767 205.021C127.733 205.021 126.752 204.912 125.772 204.776ZM145.925 196.605L135.031 177.787H149.819C150.282 179.53 150.554 181.355 150.554 183.234C150.554 188.272 148.811 192.902 145.925 196.605Z" fill="white"/>
</svg>
